<?xml version="1.0" standalone="no"?>
<!DOCTYPE svg PUBLIC "-//W3C//DTD SVG 20010904//EN"
 "http://www.w3.org/TR/2001/REC-SVG-20010904/DTD/svg10.dtd">
<svg version="1.0" xmlns="http://www.w3.org/2000/svg"
 width="256.000000pt" height="256.000000pt" viewBox="0 0 256.000000 256.000000"
 preserveAspectRatio="xMidYMid meet">
<metadata>
Created by potrace 1.14, written by Peter Selinger 2001-2017
</metadata>
<g transform="translate(0.000000,256.000000) scale(0.100000,-0.100000)"
fill="#000000" stroke="none">
<path d="M1109 2549 c-141 -20 -297 -71 -431 -141 -66 -34 -93 -43 -141 -44
-33 -1 -64 -7 -69 -12 -5 -5 -10 -28 -12 -50 -2 -31 -11 -49 -39 -78 l-36 -38
-92 -1 c-65 -2 -94 -6 -100 -16 -5 -8 -9 -62 -9 -121 0 -106 0 -107 -45 -200
-96 -197 -134 -369 -130 -588 4 -214 44 -377 136 -562 l39 -78 0 -213 c0 -152
3 -216 12 -225 9 -9 74 -12 230 -12 l218 0 71 -35 c86 -44 226 -91 327 -112
88 -17 335 -26 402 -13 25 4 61 11 80 14 63 10 79 15 171 46 175 59 347 163
477 288 11 10 19 2 43 -45 17 -32 29 -73 29 -94 0 -47 21 -66 55 -51 21 10 25
18 25 57 0 30 10 65 31 107 61 125 91 235 104 391 2 32 16 89 30 128 22 62 40
133 61 234 3 17 7 95 9 175 3 170 -9 256 -62 420 l-37 115 0 220 c-1 245 -7
270 -69 312 -50 33 -95 42 -150 28 -49 -12 -117 -66 -117 -92 0 -7 -35 12 -77
44 -146 108 -339 194 -515 229 -93 18 -331 26 -419 13z"/>
</g>
</svg>
